<svg width="17" height="18" viewBox="0 0 17 18" fill="none" xmlns="http://www.w3.org/2000/svg">
<g clip-path="url(#clip0)">
<mask id="path-1-inside-1" fill="white">
<path d="M14.4251 3.02493C15.2097 3.80959 15.8321 4.74111 16.2568 5.76631C16.6814 6.79151 16.9 7.89032 16.9 8.99999C16.9 10.1097 16.6814 11.2085 16.2568 12.2337C15.8321 13.2589 15.2097 14.1904 14.4251 14.975L10.84 11.39C11.1539 11.0761 11.4029 10.7035 11.5727 10.2935C11.7426 9.88338 11.83 9.44386 11.83 8.99999C11.83 8.55612 11.7426 8.1166 11.5727 7.70652C11.4029 7.29644 11.1539 6.92383 10.84 6.60997L14.4251 3.02493Z"/>
</mask>
<path d="M14.4251 3.02493C15.2097 3.80959 15.8321 4.74111 16.2568 5.76631C16.6814 6.79151 16.9 7.89032 16.9 8.99999C16.9 10.1097 16.6814 11.2085 16.2568 12.2337C15.8321 13.2589 15.2097 14.1904 14.4251 14.975L10.84 11.39C11.1539 11.0761 11.4029 10.7035 11.5727 10.2935C11.7426 9.88338 11.83 9.44386 11.83 8.99999C11.83 8.55612 11.7426 8.1166 11.5727 7.70652C11.4029 7.29644 11.1539 6.92383 10.84 6.60997L14.4251 3.02493Z" stroke="#4C9AFF" stroke-width="24" mask="url(#path-1-inside-1)"/>
<mask id="path-2-inside-2" fill="white">
<path d="M8.45 0.549988C10.6911 0.549988 12.8404 1.44025 14.425 3.02493L10.84 6.60997C10.2061 5.97609 9.34643 5.61999 8.45 5.61999V0.549988Z"/>
</mask>
<path d="M8.45 0.549988C10.6911 0.549988 12.8404 1.44025 14.425 3.02493L10.84 6.60997C10.2061 5.97609 9.34643 5.61999 8.45 5.61999V0.549988Z" stroke="#0065FF" stroke-width="24" mask="url(#path-2-inside-2)"/>
<mask id="path-3-inside-3" fill="white">
<path d="M14.4251 14.975C13.4425 15.9576 12.2327 16.6828 10.9029 17.0861C9.57313 17.4895 8.1644 17.5587 6.80149 17.2876C5.43858 17.0165 4.16356 16.4135 3.08938 15.5319C2.0152 14.6504 1.175 13.5175 0.643222 12.2337C0.11144 10.9498 -0.0955141 9.55467 0.0406907 8.17175C0.176896 6.78883 0.652055 5.46084 1.42408 4.30542C2.19611 3.15 3.24117 2.20282 4.46669 1.54776C5.69222 0.892698 7.06038 0.549989 8.44999 0.549988L8.45 5.61999C7.89415 5.61999 7.34689 5.75707 6.85668 6.01909C6.36647 6.28112 5.94844 6.65999 5.63963 7.12216C5.33082 7.58433 5.14076 8.11552 5.08628 8.66869C5.0318 9.22186 5.11458 9.77993 5.32729 10.2935C5.54 10.807 5.87608 11.2601 6.30575 11.6128C6.73543 11.9654 7.24543 12.2066 7.7906 12.315C8.33576 12.4235 8.89925 12.3958 9.43116 12.2344C9.96307 12.0731 10.447 11.7831 10.84 11.39L14.4251 14.975Z"/>
</mask>
<path d="M14.4251 14.975L22.9103 23.4603L31.3956 14.975L22.9103 6.48976L14.4251 14.975ZM8.44999 0.549988L20.45 0.549977L20.45 -11.45L8.44998 -11.45L8.44999 0.549988ZM8.45 5.61999L8.45001 17.62L20.45 17.62L20.45 5.61998L8.45 5.61999ZM10.84 11.39L19.3253 2.90473L10.84 -5.58055L2.35474 2.90473L10.84 11.39ZM5.93977 6.48976C6.35258 6.07695 6.86082 5.77232 7.41949 5.60285L14.3863 28.5694C17.6045 27.5932 20.5323 25.8383 22.9103 23.4603L5.93977 6.48976ZM7.41949 5.60285C7.97816 5.43338 8.57 5.40431 9.14257 5.5182L4.46041 29.057C7.7588 29.7131 11.1681 29.5457 14.3863 28.5694L7.41949 5.60285ZM9.14257 5.5182C9.71515 5.63209 10.2508 5.88544 10.7021 6.2558L-4.52333 24.8081C-1.92368 26.9415 1.16201 28.401 4.46041 29.057L9.14257 5.5182ZM10.7021 6.2558C11.1534 6.62616 11.5064 7.1021 11.7298 7.64146L-10.4433 16.8259C-9.15636 19.9329 -7.12299 22.6746 -4.52333 24.8081L10.7021 6.2558ZM11.7298 7.64146C11.9532 8.18082 12.0401 8.76696 11.9829 9.34795L-11.9015 6.99555C-12.2312 10.3424 -11.7303 13.7188 -10.4433 16.8259L11.7298 7.64146ZM11.9829 9.34795C11.9257 9.92894 11.7261 10.4868 11.4017 10.9723L-8.55356 -2.36141C-10.422 0.43484 -11.5719 3.64872 -11.9015 6.99555L11.9829 9.34795ZM11.4017 10.9723C11.0774 11.4577 10.6383 11.8556 10.1235 12.1308L-1.19008 -9.03529C-4.156 -7.44997 -6.68517 -5.15766 -8.55356 -2.36141L11.4017 10.9723ZM10.1235 12.1308C9.6086 12.406 9.03381 12.55 8.45001 12.55L8.44998 -11.45C5.08696 -11.45 1.77584 -10.6206 -1.19008 -9.03529L10.1235 12.1308ZM-3.55001 0.549999L-3.55 5.62L20.45 5.61998L20.45 0.549977L-3.55001 0.549999ZM8.44999 -6.38001C5.92074 -6.38001 3.43052 -5.75624 1.19991 -4.56396L12.5134 16.6021C11.2633 17.2704 9.86757 17.62 8.45001 17.62L8.44999 -6.38001ZM1.19991 -4.56396C-1.0307 -3.37167 -2.93283 -1.64767 -4.33801 0.455327L15.6173 13.789C14.8297 14.9677 13.7636 15.9339 12.5134 16.6021L1.19991 -4.56396ZM-4.33801 0.455327C-5.74319 2.55833 -6.60803 4.97542 -6.85594 7.49249L17.0285 9.84489C16.8895 11.2556 16.4048 12.6103 15.6173 13.789L-4.33801 0.455327ZM-6.85594 7.49249C-7.10385 10.0096 -6.72717 12.5489 -5.75926 14.8857L16.4138 5.70125C16.9563 7.01092 17.1674 8.43415 17.0285 9.84489L-6.85594 7.49249ZM-5.75926 14.8857C-4.79136 17.2224 -3.2621 19.2843 -1.30696 20.8889L13.9185 2.33664C15.0143 3.23593 15.8714 4.39159 16.4138 5.70125L-5.75926 14.8857ZM-1.30696 20.8889C0.64818 22.4934 2.96886 23.591 5.44952 24.0845L10.1317 0.545618C11.522 0.822171 12.8227 1.43734 13.9185 2.33664L-1.30696 20.8889ZM5.44952 24.0845C7.93017 24.5779 10.4942 24.4519 12.9146 23.7177L5.94775 0.751162C7.30428 0.339663 8.74135 0.269065 10.1317 0.545618L5.44952 24.0845ZM12.9146 23.7177C15.3349 22.9835 17.5368 21.6637 19.3253 19.8753L2.35474 2.90473C3.35712 1.90235 4.59123 1.16266 5.94775 0.751162L12.9146 23.7177ZM2.35474 19.8753L5.93977 23.4603L22.9103 6.48976L19.3253 2.90473L2.35474 19.8753Z" fill="#0747A6" mask="url(#path-3-inside-3)"/>
</g>
<defs>
<clipPath id="clip0">
<rect width="16.9" height="16.9" fill="white" transform="translate(0 0.549988)"/>
</clipPath>
</defs>
</svg>
